<?xml version="1.0" encoding="UTF-8" standalone="no"?>
<!-- Created with Inkscape (http://www.inkscape.org/) -->

<svg
        xmlns:dc="http://purl.org/dc/elements/1.1/"
        xmlns:cc="http://creativecommons.org/ns#"
        xmlns:rdf="http://www.w3.org/1999/02/22-rdf-syntax-ns#"
        xmlns="http://www.w3.org/2000/svg"
        xmlns:sodipodi="http://sodipodi.sourceforge.net/DTD/sodipodi-0.dtd"
        xmlns:inkscape="http://www.inkscape.org/namespaces/inkscape"
        version="1.1"
        id="svg2"
        width="32"
        height="48"
        viewBox="0 0 32 48"
        sodipodi:docname="baloon2.svg"
        inkscape:version="0.92.1 r15371">
  <metadata
     id="metadata8">
    <rdf:RDF>
      <cc:Work
         rdf:about="">
        <dc:format>image/svg+xml</dc:format>
        <dc:type
           rdf:resource="http://purl.org/dc/dcmitype/StillImage" />
        <dc:title></dc:title>
      </cc:Work>
    </rdf:RDF>
  </metadata>
  <defs
     id="defs6" />
  <sodipodi:namedview
     pagecolor="#ffffff"
     bordercolor="#666666"
     borderopacity="1"
     objecttolerance="10"
     gridtolerance="10"
     guidetolerance="10"
     inkscape:pageopacity="0"
     inkscape:pageshadow="2"
     inkscape:window-width="1440"
     inkscape:window-height="838"
     id="namedview4"
     showgrid="false"
     inkscape:zoom="4.9166667"
     inkscape:cx="16"
     inkscape:cy="24"
     inkscape:window-x="-8"
     inkscape:window-y="193"
     inkscape:window-maximized="1"
     inkscape:current-layer="svg2" />
  <path
     style="fill:#ffffff;stroke-width:1.33333337"
     d="M 13.35915,45.349623 C 9.9978276,41.299479 1.1299436,19.765819 1.1299436,15.653751 c 0,-5.9086132 6.54673,-13.5201682 12.6065434,-14.65699595 8.018827,-1.50434114 18.041282,6.83419095 18.055139,15.02160495 0.0077,4.549423 -12.861556,31.055087 -15.078129,31.055087 -1.058036,0 -2.567492,-0.77572 -3.354347,-1.723824 z m 8.342221,-24.371415 c 4.460143,-4.460141 1.002238,-11.2380952 -5.733333,-11.2380952 -2.000952,0 -4.358095,0.7200002 -5.238095,1.6000002 -2.0625574,2.062558 -2.0625574,8.070776 0,10.133334 2.265365,2.265365 8.491884,1.984306 10.971428,-0.495239 z"
     id="path4487"
     inkscape:connector-curvature="0" />
</svg>
