<?xml version="1.0" encoding="utf-8"?>
<!-- Generator: Adobe Illustrator 21.0.2, SVG Export Plug-In . SVG Version: 6.00 Build 0)  -->
<svg version="1.1" id="Capa_1" xmlns="http://www.w3.org/2000/svg"  x="0px" y="0px"
	 viewBox="0 0 361 361" style="enable-background:new 0 0 361 361;" xml:space="preserve">
<style type="text/css">
	.st0{fill:#FFFFFF;}
	.st1{fill:#B7B6B6;}
</style>
<circle class="st0" cx="180.5" cy="180.5" r="175.5"/>
<g>
	<path class="st1" d="M179.6,213.6c29.3,0,53.1-28.9,53.1-64.5s-7.8-64.5-53.1-64.5s-53.1,28.9-53.1,64.5
		C126.5,184.7,150.2,213.6,179.6,213.6z"/>
	<path class="st1" d="M280.7,308.5c-1-62-9.1-79.8-71.2-91c0,0-8.7,11.2-29.1,11.2s-29.1-11.2-29.1-11.2
		c-61.4,11.1-70,28.5-71.1,88.9c-0.1,4.9-0.2,5.2-0.2,4.6c0,1.1-0.1,10-0.1,13.4c0,0,36.6,31.6,100.4,31.5
		c60-0.1,99.8-31.2,99.8-31.2c0-2.3,0.5-10.9,0.5-11.9C280.9,313.2,280.8,312.5,280.7,308.5z"/>
</g>
</svg>
