<?xml version="1.0" encoding="utf-8"?>
<!-- Generator: Adobe Illustrator 21.0.2, SVG Export Plug-In . SVG Version: 6.00 Build 0)  -->
<svg version="1.1" id="Слой_1" xmlns="http://www.w3.org/2000/svg"  x="0px" y="0px"
	 viewBox="0 0 14.1 21.9" style="enable-background:new 0 0 14.1 21.9;" xml:space="preserve">
<path d="M12.6,6.5l-3.3,11c-0.6,2.1-2.9,3.3-5,2.7c-2.1-0.6-3.3-2.9-2.7-5l3.6-12C5.6,2,7,1.2,8.4,1.6s2.1,1.8,1.7,3.1L7,14.8
	c-0.2,0.5-0.7,0.8-1.2,0.7S5,14.7,5.1,14.2l2.7-9.1L6.4,4.7l-2.7,9.1c-0.4,1.3,0.4,2.7,1.7,3.1s2.7-0.4,3.1-1.7l3-10.1
	c0.6-2.1-0.6-4.3-2.7-5s-4.3,0.6-5,2.7l-3.6,12c-0.9,2.9,0.8,6,3.7,6.8c2.9,0.9,6-0.8,6.8-3.7l3.3-11L12.6,6.5z"/>
</svg>
