<?xml version="1.0" encoding="UTF-8" standalone="no"?>
<!-- Created with Inkscape (http://www.inkscape.org/) -->

<svg
        xmlns:dc="http://purl.org/dc/elements/1.1/"
        xmlns:cc="http://creativecommons.org/ns#"
        xmlns:rdf="http://www.w3.org/1999/02/22-rdf-syntax-ns#"
        xmlns="http://www.w3.org/2000/svg"
        xmlns:sodipodi="http://sodipodi.sourceforge.net/DTD/sodipodi-0.dtd"
        xmlns:inkscape="http://www.inkscape.org/namespaces/inkscape"
        version="1.1"
        id="svg2"
        width="512"
        height="512"
        viewBox="0 0 512 512"
        sodipodi:docname="search.svg"
        inkscape:version="0.92.1 r15371">
  <metadata
     id="metadata8">
    <rdf:RDF>
      <cc:Work
         rdf:about="">
        <dc:format>image/svg+xml</dc:format>
        <dc:type
           rdf:resource="http://purl.org/dc/dcmitype/StillImage" />
        <dc:title></dc:title>
      </cc:Work>
    </rdf:RDF>
  </metadata>
  <defs
     id="defs6" />
  <sodipodi:namedview
     pagecolor="#ffffff"
     bordercolor="#666666"
     borderopacity="1"
     objecttolerance="10"
     gridtolerance="10"
     guidetolerance="10"
     inkscape:pageopacity="0"
     inkscape:pageshadow="2"
     inkscape:window-width="1440"
     inkscape:window-height="838"
     id="namedview4"
     showgrid="false"
     inkscape:zoom="0.4609375"
     inkscape:cx="256"
     inkscape:cy="256"
     inkscape:window-x="-8"
     inkscape:window-y="193"
     inkscape:window-maximized="1"
     inkscape:current-layer="svg2" />
  <path
     style="fill:#999999"
     d="m 55.066713,446.08583 -11.74709,-11.74709 63.675957,-63.68179 63.67595,-63.68179 -3.98098,-5.32232 c -13.8006,-18.45056 -23.20407,-39.34312 -28.60924,-63.56382 -1.87002,-8.37962 -2.18082,-12.86713 -2.19957,-31.75851 -0.0191,-19.27872 0.26206,-23.29879 2.27337,-32.5 13.95271,-63.83013 61.3848,-111.25961 125.16692,-125.16005 9.12149,-1.9879 13.32266,-2.28833 32,-2.28833 18.67734,0 22.87851,0.30043 32,2.28833 63.78151,13.90031 111.25974,61.37854 125.16004,125.16005 1.98791,9.12149 2.28833,13.32266 2.28833,32 0,18.67734 -0.30042,22.87851 -2.28833,32 -13.90043,63.78212 -61.32991,111.21421 -125.16004,125.16692 -9.20121,2.01131 -13.22128,2.29251 -32.5,2.27337 -18.89138,-0.0188 -23.37889,-0.32955 -31.75851,-2.19957 -24.2207,-5.40517 -45.11326,-14.80864 -63.56382,-28.60924 l -5.32232,-3.98098 -63.68179,63.67595 -63.681787,63.67596 z M 307.82203,332.36892 c 36.2893,-2.51795 72.20321,-24.08611 93.81702,-56.34199 27.77078,-41.44436 27.82003,-98.17742 0.12168,-140.17789 C 376.13826,96.99635 332.18165,75.54386 285.31271,79.018 222.9658,83.63945 173.13097,133.47428 168.50953,195.82119 c -5.23467,70.61982 46.54538,131.37732 116.66462,136.89154 5.30634,0.41729 10.77288,0.63554 12.14788,0.48499 1.375,-0.15054 6.1,-0.5235 10.5,-0.8288 z"
     id="path4487"
     inkscape:connector-curvature="0" />
</svg>
